# xmcd
#
# Track frame offsets: 
#        150
#        18069
#        36614
#        55551
#        74816
#        93611
#        115511
#        134226
#        148596
#        168509
#        191741
#
# Disc length: 2977 seconds
#
# Revision: 0
# Processed by: cddbd v1.5.2PL0 Copyright (c) Steve Scherf et al.
# Submitted via: ExactAudioCopy v1.3
#
DISCID=a50b9f0b
DTITLE=Rick Derringer - Free Ride
DYEAR=2002
DGENRE=Blues Rock
TTITLE0=Jazzy Koo (Rock And Roll Hoochie Koo)
TTITLE1=Hot And Cool
TTITLE2=Celestial Love
TTITLE3=Free Ride
TTITLE4=Big City Loneliness
TTITLE5=Good 2 Go
TTITLE6=Frankenstien Smooth Frank
TTITLE7=Hold
TTITLE8=Blue Velvet
TTITLE9=Jump, Jump, Jump
TTITLE10=Rhapsody In Red
EXTD=
EXTT0=
EXTT1=
EXTT2=
EXTT3=
EXTT4=
EXTT5=
EXTT6=
EXTT7=
EXTT8=
EXTT9=
EXTT10=
PLAYORDER=
